# AST/ASF file generated using VICON BodyLanguage
# -----------------------------------------------
:version 1.10
:name VICON
:units
  mass 1.0
  length 0.45
  angle deg
:documentation
   .ast/.asf automatically generated from VICON data using
   VICON BodyBuilder and BodyLanguage model FoxedUp or BRILLIANT.MOD
:root
   order TX TY TZ RX RY RZ
   axis XYZ
   position 0 0 0  
   orientation 0 -0 0 
:bonedata
  begin
     id 1 
     name lhipjoint
     direction 0.515797 -0.759363 0.396637 
     length 2.47888 
     axis 0 -0 0  XYZ
  end
  begin
     id 2 
     name lfemur
     direction 0.34202 -0.939693 0  
     length 6.81885  
     axis 0 -0 20  XYZ
    dof rx ry rz
    limits (-160.0 20.0)
           (-70.0 70.0)
           (-60.0 70.0)
  end
  begin
     id 3 
     name ltibia
     direction 0.342037 -0.939687 0   
     length 7.89258   
     axis 0 -0 20   XYZ
    dof rx
    limits (-10.0 170.0)
  end
  begin
     id 4 
     name lfoot
     direction 0.173497 -0.476678 0.861787   
     length 2.51543   
     axis -90 -1.13533e-015 20   XYZ
    dof rx rz
    limits (-45.0 90.0)
           (-70.0 20.0)
  end
  begin
     id 5 
     name ltoes
     direction 1.53564e-011 -4.21897e-011 1   
     length 1.21388   
     axis -90 -1.13533e-015 20   XYZ
    dof rx
    limits (-90.0 20.0)
  end
  begin
     id 6 
     name rhipjoint
     direction -0.489454 -0.772941 0.403729   
     length 2.43534  
     axis 0 -0 0  XYZ 
  end
  begin
     id 7 
     name rfemur
     direction -0.34202 -0.939693 0   
     length 7.10357   
     axis 0 -0 -20   XYZ
    dof rx ry rz
    limits (-160.0 20.0)
           (-70.0 70.0)
           (-70.0 60.0)
  end
  begin
     id 8 
     name rtibia
     direction -0.34202 -0.939693 0   
     length 9.16127   
     axis 0 -0 -20   XYZ
    dof rx
    limits (-10.0 170.0)
 end
 begin
     id 9 
     name rfoot
     direction -0.270974 -0.748671 0.605033   
     length 1.74894  
     axis -90 1.13533e-015 -20   XYZ
    dof rx rz
    limits (-45.0 90.0)
           (-20.0 70.0)
  end
  begin
     id 10 
     name rtoes
     direction -1.53557e-011 -4.21759e-011 1   
     length 0.787585   
     axis -90 1.13533e-015 -20   XYZ
    dof rx
    limits (-90.0 20.0)
  end
  begin
     id 11 
     name lowerback
     direction -0.0140249 0.999561 0.0260968   
     length 2.16963   
     axis 0 -0 0   XYZ
    dof rx ry rz
    limits (-20.0 45.0)
           (-30.0 30.0)
           (-30.0 30.0)
  end
  begin
     id 12 
     name upperback
     direction 0.00860018 0.999959 -0.002711   
     length 2.1726   
     axis 0 -0 0   XYZ
    dof rx ry rz
    limits (-20.0 45.0)
           (-30.0 30.0)
           (-30.0 30.0)
  end
  begin
     id 13 
     name thorax
     direction 0.015211 0.999782 -0.0143191   
     length 2.17061   
     axis 0 -0 0   XYZ
    dof rx ry rz
    limits (-20.0 45.0)
           (-30.0 30.0)
           (-30.0 30.0)
  end
  begin
     id 14 
     name lowerneck
     direction -0.0140143 0.999447 0.030145   
     length 2.26749   
     axis 0 -0 0   XYZ
    dof rx ry rz
    limits (-20.0 45.0)
           (-30.0 30.0)
           (-30.0 30.0)
  end
  begin
     id 15 
     name upperneck
     direction 0.118062 0.961438 -0.248392   
     length 2.22728   
     axis 0 -0 0   XYZ
    dof rx ry rz
    limits (-20.0 45.0)
           (-30.0 30.0)
           (-30.0 30.0)
  end
  begin
     id 16
     name head
     direction 0.0431885 0.9954 -0.085514  
     length 2.28786  
     axis 0 -0 0   XYZ
    dof rx ry rz
    limits (-20.0 45.0)
           (-30.0 30.0)
           (-30.0 30.0)
  end
  begin
     id 17 
     name lclavicle
     direction 0.912126 0.409548 0.0172323  
     length 4.31571  
     axis 0 -0 0   XYZ
    dof ry rz
    limits (-20.0 10.0)
           (0.0 20.0)
  end
  begin
     id 18 
     name lhumerus
     direction 1 -4.48977e-011 1.93091e-027   
     length 5.13658   
     axis 180 -30 -90   XYZ
    dof rx ry rz
    limits (-60.0 90.0)
           (-90.0 90.0)
           (-90.0 90.0)
  end
  begin
     id 19
     name lradius
     direction 1 -4.48916e-011 6.84018e-027   
     length 3.22473   
     axis 180 -30 -90   XYZ
    dof rx
    limits (-10.0 170.0)
  end
  begin
     id 20
     name lwrist
     direction 1 -4.48987e-011 7.01981e-027   
     length 1.61236   
     axis -4.37994e-015 90 90   XYZ
    dof ry
    limits (-180.0 0.0)
 end
  begin
     id 21 
     name lhand
     direction 1 -4.49037e-011 1.40335e-026   
     length 0.936406   
     axis -8.96029e-015 90 90   XYZ
    dof rx rz
    limits (-90.0 90.0)
           (-45.0 45.0)
  end
  begin
     id 22 
     name lfingers
     direction 1 -4.48886e-011 2.8104e-026   
     length 0.754955   
     axis -1.79203e-014 90 90   XYZ
    dof rx
    limits (0.0 90.0)
  end
  begin
     id 23
     name lthumb
     direction 0.707107 -6.34937e-011 0.707107   
     length 1.08397   
     axis -90 45 -4.48555e-014   XYZ
    dof rx rz
    limits (-45.0 45.0)
           (-45.0 45.0)
  end
  begin
     id 24 
     name rclavicle
     direction -0.947962 0.317997 0.0156638   
     length 4.86918  
     axis 0 -0 0   XYZ 
    dof ry rz
    limits (-10.0 20.0)
           (-20.0 0.0)
  end
  begin
     id 25 
     name rhumerus
     direction -1 -4.48951e-011 2.80534e-018  
     length 5.60911   
     axis 180 30 90   XYZ
    dof rx ry rz
    limits (-90.0 60.0)
           (-90.0 90.0)
           (-90.0 90.0)
  end
  begin
     id 26 
     name rradius
     direction -1 -4.4898e-011 2.11315e-027   
     length 3.38704   
     axis 180 30 90   XYZ
    dof rx
    limits (-10.0 170.0)
  end
  begin
     id 27 
     name rwrist
     direction -1 -4.48933e-011 7.02314e-027   
     length 1.69352   
     axis -4.37994e-015 -90 -90   XYZ
    dof ry
    limits (-180.0 0.0)
  end
  begin
     id 28
     name rhand
     direction -1 -4.48937e-011 1.40458e-026   
     length 0.755878   
     axis -8.96029e-015 -90 -90   XYZ
    dof rx rz
    limits (-90.0 90.0)
           (-45.0 45.0)
  end
  begin
     id 29
     name rfingers
     direction -1 -4.4901e-011 2.80737e-026   
     length 0.609409   
     axis -1.79203e-014 -90 -90   XYZ
    dof rx
    limits (0.0 90.0)
  end
  begin
     id 30
     name rthumb
     direction -0.707107 -6.34968e-011 0.707107   
     length 0.874992   
     axis -90 -45 4.48555e-014   XYZ
    dof rx rz
    limits (-45.0 45.0)
           (-45.0 45.0)
  end
:hierarchy
  begin
    root lhipjoint rhipjoint lowerback
    lhipjoint lfemur
    lfemur ltibia
    ltibia lfoot
    lfoot ltoes
    rhipjoint rfemur
    rfemur rtibia
    rtibia rfoot
    rfoot rtoes
    lowerback upperback
    upperback thorax
    thorax lowerneck lclavicle rclavicle
    lowerneck upperneck
    upperneck head
    lclavicle lhumerus
    lhumerus lradius
    lradius lwrist
    lwrist lhand lthumb
    lhand lfingers
    rclavicle rhumerus
    rhumerus rradius
    rradius rwrist
    rwrist rhand rthumb
    rhand rfingers
  end

#!OML:ASF C:\ViconDB\ViconDB\414\Spring2016\041811\Spring2016.ASF
:FULLY-SPECIFIED
:DEGREES
1
root 13.2252 18.0362 12.3096 -177.532 -11.8846 -178.104
lowerback -1.33802 0.781325 -2.38094
upperback 0.345825 1.07979 0.335247
thorax 1.0539 0.523148 1.7015
lowerneck -13.4933 -0.990852 -6.78339
upperneck 23.995 -4.50291 13.1675
head 10.3075 -1.73361 5.21507
rclavicle 6.98231e-015 9.14409e-015
rhumerus -40.3172 -22.5784 -77.0727
rradius 35.991
rwrist 44.4397
rhand -35.1383 -13.9694
rfingers 7.12502
rthumb -8.27829 -43.7872
lclavicle 6.98231e-015 9.14409e-015
lhumerus -37.3408 2.85915 85.5843
lradius 27.6494
lwrist -31.5966
lhand -30.5119 17.3303
lfingers 7.12502
lthumb -3.81175 47.276
rfemur 175.932 46.1741 -172.122
rtibia 21.1728
rfoot -36.8358 -44.347
rtoes 6.61953e-014
lfemur -9.97523 -2.84168 -10.6737
ltibia 27.8479
lfoot -23.4319 10.5084
ltoes -7.09661e-014
2
root 13.1955 18.0419 12.3473 -177.431 -11.4472 -177.977
lowerback -1.17013 0.86574 -2.37856
upperback 0.33382 1.1871 0.435114
thorax 0.940357 0.578197 1.80161
lowerneck -13.5106 -0.97349 -6.81409
upperneck 23.906 -4.45287 13.1854
head 10.2736 -1.70784 5.23078
rclavicle 4.008e-014 -7.95139e-016
rhumerus -40.1909 -22.6577 -76.9165
rradius 36.2667
rwrist 44.0778
rhand -34.7851 -13.7669
rfingers 7.12502
rthumb -7.93741 -43.5979
lclavicle 4.008e-014 -7.95139e-016
lhumerus -37.2682 2.15148 86.0962
lradius 27.8047
lwrist -31.1468
lhand -30.4686 17.1677
lfingers 7.12502
lthumb -3.76994 47.1141
rfemur 176.492 45.7738 -171.656
rtibia 21.1275
rfoot -36.7069 -44.4279
rtoes 9.13416e-014
lfemur -10.1237 -2.90053 -10.6579
ltibia 27.8634
lfoot -23.5951 10.7863
ltoes -3.99557e-014
3
root 13.1659 18.0527 12.3849 -177.283 -10.9799 -177.94
lowerback -0.985071 0.874971 -2.45143
upperback 0.320551 1.19544 0.446171
thorax 0.820898 0.583633 1.85048
lowerneck -13.6771 -0.880508 -6.59593
upperneck 23.9311 -4.33338 13.0707
head 10.2951 -1.63678 5.16675
rclavicle -1.46604e-015 1.03368e-014
rhumerus -39.9666 -22.6271 -76.9824
rradius 36.3929
rwrist 44.062
rhand -34.9241 -13.8375
rfingers 7.12502
rthumb -8.07156 -43.6633
lclavicle -1.46604e-015 1.03368e-014
lhumerus -37.1991 1.59262 86.4447
lradius 27.9624
lwrist -30.5848
lhand -30.2633 16.6141
lfingers 7.12502
lthumb -3.57169 46.564
rfemur 177.067 45.3622 -171.26
rtibia 21.1215
rfoot -36.417 -44.6287
rtoes -1.23644e-013
lfemur -10.3175 -2.88153 -10.7769
ltibia 27.8733
lfoot -23.6799 11.2613
ltoes 6.36111e-015
4
root 13.1317 18.0581 12.4185 -177.28 -10.3831 -177.925
lowerback -0.731762 0.976621 -2.60245
upperback 0.368208 1.32549 0.557819
thorax 0.715242 0.648513 2.0471
lowerneck -13.8489 -0.836047 -6.56202
upperneck 23.9296 -4.22578 12.9701
head 10.3128 -1.5822 5.13925
rclavicle -5.09386e-015 5.56597e-015
rhumerus -39.7577 -22.6941 -76.7887
rradius 36.5152
rwrist 43.9592
rhand -35.0156 -14.1103
rfingers 7.12502
rthumb -8.1598 -43.9327
lclavicle -5.09386e-015 5.56597e-015
lhumerus -37.1344 0.871107 87.0585
lradius 28.1055
lwrist -30.2227
lhand -30.2285 16.7153
lfingers 7.12502
lthumb -3.53814 46.6656
rfemur 177.315 44.4943 -171.132
rtibia 21.2027
rfoot -35.6595 -44.8019
rtoes 5.04913e-014
lfemur -10.2284 -2.86727 -10.9187
ltibia 27.8207
lfoot -23.792 11.6416
ltoes -4.63168e-014
5
root 13.1044 18.0643 12.4545 -177.289 -9.84557 -177.792
lowerback -0.469831 1.04923 -2.52229
upperback 0.425818 1.41438 0.593095
thorax 0.62359 0.693696 2.03449
lowerneck -13.9946 -0.774381 -6.45607
upperneck 23.895 -4.13497 12.9378
head 10.3162 -1.52561 5.12028
rclavicle -3.23274e-014 2.78299e-015
rhumerus -39.5039 -22.8044 -76.8594
rradius 36.6985
rwrist 43.5742
rhand -34.8563 -14.0552
rfingers 7.12502
rthumb -8.00609 -43.8836
lclavicle -3.23274e-014 2.78299e-015
lhumerus -37.0695 -0.156559 87.5991
lradius 28.433
lwrist -29.418
lhand -30.07 17.1068
lfingers 7.12502
lthumb -3.38502 47.0597
rfemur 177.468 43.2885 -170.933
rtibia 21.3495
rfoot -34.2327 -44.9992
rtoes -2.46095e-013
lfemur -10.1676 -2.91848 -10.9229
ltibia 27.7465
lfoot -23.9226 12.1299
ltoes 4.11484e-014
6
root 13.0781 18.0699 12.4891 -177.357 -9.30125 -177.778
lowerback -0.133713 1.0948 -2.57173
upperback 0.504643 1.46635 0.583976
thorax 0.512162 0.719737 2.04695
lowerneck -14.1832 -0.666468 -6.21034
upperneck 23.8667 -3.983 12.8084
head 10.3194 -1.4356 5.04914
rclavicle -1.06101e-014 7.55382e-015
rhumerus -39.2784 -23.0321 -76.8912
rradius 36.7788
rwrist 43.8245
rhand -34.8454 -14.2829
rfingers 7.12502
rthumb -7.99559 -44.1117
lclavicle -1.06101e-014 7.55382e-015
lhumerus -36.9654 -0.34676 87.5469
lradius 28.4496
lwrist -30.38
lhand -29.6608 16.6472
lfingers 7.12502
lthumb -2.98992 46.606
rfemur 177.395 42.1364 -170.92
rtibia 21.6523
rfoot -32.5202 -45.1723
rtoes 1.88845e-014
lfemur -9.94698 -3.05485 -11.0599
ltibia 27.5729
lfoot -24.097 12.6213
ltoes 2.54444e-014
7
root 13.0568 18.0756 12.5225 -177.469 -8.75839 -177.648
lowerback 0.235601 1.1336 -2.57178
upperback 0.587154 1.50719 0.640227
thorax 0.385961 0.74021 2.09769
lowerneck -14.2837 -0.545884 -6.05596
upperneck 23.7527 -3.78882 12.7206
head 10.2718 -1.33217 5.01155
rclavicle 1.62755e-014 5.56597e-015
rhumerus -39.0086 -23.0336 -77.0138
rradius 36.8209
rwrist 43.7288
rhand -34.9314 -14.054
rfingers 7.12502
rthumb -8.0786 -43.8795
lclavicle 1.62755e-014 5.56597e-015
lhumerus -36.859 -0.743256 87.6596
lradius 28.5484
lwrist -30.5939
lhand -29.3325 16.5002
lfingers 7.12502
lthumb -2.67285 46.4632
rfemur 177.164 41.0144 -170.799
rtibia 22.1353
rfoot -30.7737 -45.5047
rtoes -1.23445e-013
lfemur -9.69491 -3.21602 -11.0508
ltibia 27.3981
lfoot -24.2962 13.1245
ltoes 7.35503e-015
8
root 13.0323 18.0812 12.5495 -177.644 -8.16857 -177.616
lowerback 0.569362 1.25002 -2.50613
upperback 0.704929 1.65244 0.619213
thorax 0.313962 0.811793 2.03267
lowerneck -14.3603 -0.47576 -5.92809
upperneck 23.6455 -3.67818 12.6732
head 10.2334 -1.26775 4.98278
rclavicle -2.13445e-014 -2.38542e-015
rhumerus -38.826 -22.9876 -77.1906
rradius 36.9365
rwrist 43.2022
rhand -34.7841 -14.0827
rfingers 7.12502
rthumb -7.93641 -43.9137
lclavicle -2.13445e-014 -2.38542e-015
lhumerus -36.8813 -1.39509 87.8622
lradius 28.7701
lwrist -30.6973
lhand -29.196 16.4014
lfingers 7.12502
lthumb -2.54104 46.366
rfemur 176.66 40.0562 -170.855
rtibia 22.7825
rfoot -28.9457 -45.7657
rtoes 4.37326e-015
lfemur -9.26011 -3.56951 -11.1863
ltibia 27.1808
lfoot -24.6533 13.7534
ltoes -6.69904e-014
9
root 13.0164 18.0819 12.5822 -177.745 -7.71643 -177.725
lowerback 0.987954 1.27495 -2.6851
upperback 0.770467 1.67171 0.589333
thorax 0.141403 0.821415 2.09297
lowerneck -14.4159 -0.377685 -5.86699
upperneck 23.5164 -3.52143 12.6744
head 10.1795 -1.18398 4.98871
rclavicle 4.08999e-014 -6.75868e-015
rhumerus -38.6166 -22.6129 -77.476
rradius 37.0897
rwrist 42.5806
rhand -34.956 -14.1977
rfingers 7.12502
rthumb -8.10234 -44.0224
lclavicle 4.08999e-014 -6.75868e-015
lhumerus -36.8503 -2.37828 88.1248
lradius 28.9052
lwrist -30.3784
lhand -29.0491 16.286
lfingers 7.12502
lthumb -2.39912 46.2523
rfemur 176.07 41.5218 -170.793
rtibia 23.5546
rfoot -29.7312 -46.6772
rtoes -6.83819e-014
lfemur -9.05654 -3.75052 -11.47
ltibia 26.9872
lfoot -24.6032 14.5227
ltoes 2.96189e-014
10
root 13.0064 18.0928 12.6125 -177.868 -7.48189 -177.479
lowerback 1.30708 1.23602 -2.61354
upperback 0.86648 1.60928 0.728758
thorax 0.0624404 0.788773 2.19055
lowerneck -14.4494 -0.28521 -5.8504
upperneck 23.3389 -3.32613 12.6063
head 10.0988 -1.09063 4.9804
rclavicle 2.39536e-014 -5.1684e-015
rhumerus -38.3813 -22.255 -77.6888
rradius 37.2253
rwrist 42.3975
rhand -34.8569 -14.2025
rfingers 7.12502
rthumb -8.00664 -44.0309
lclavicle 2.39536e-014 -5.1684e-015
lhumerus -36.8024 -2.5482 88.1706
lradius 29.0255
lwrist -30.612
lhand -29.0111 16.0224
lfingers 7.12502
lthumb -2.36241 45.989
rfemur 175.29 42.4218 -170.368
rtibia 24.4811
rfoot -30.3179 -47.4016
rtoes 5.28767e-014
lfemur -8.7536 -4.36279 -11.2582
ltibia 26.7161
lfoot -25.0113 14.8618
ltoes -6.34123e-014
11
root 13.0004 18.1018 12.6364 -178.069 -7.12889 -177.218
lowerback 1.73345 1.21624 -2.52844
upperback 0.935782 1.56967 0.823192
thorax -0.103499 0.768888 2.23169
lowerneck -14.4318 -0.134533 -5.7314
upperneck 23.1981 -3.10526 12.5751
head 10.0186 -0.979048 4.97062
rclavicle 1.6027e-014 5.1684e-015
rhumerus -38.2413 -21.6932 -78.0342
rradius 37.4181
rwrist 42.0215
rhand -34.8632 -13.9843
rfingers 7.12502
rthumb -8.01271 -43.8124
lclavicle 1.6027e-014 5.1684e-015
lhumerus -36.8529 -3.26227 88.2648
lradius 29.2064
lwrist -30.271
lhand -28.8145 15.8745
lfingers 7.12502
lthumb -2.17257 45.8432
rfemur 174.384 43.1486 -169.916
rtibia 25.4883
rfoot -31.0981 -48.1733
rtoes -8.34896e-015
lfemur -8.36733 -4.74929 -11.0565
ltibia 26.4306
lfoot -25.2043 15.39
ltoes -1.63003e-014
12
root 12.9949 18.1167 12.6564 -178.217 -6.71358 -177.173
lowerback 2.06871 1.28042 -2.58585
upperback 0.997469 1.6429 0.864647
thorax -0.235007 0.804906 2.29793
lowerneck -14.4489 -0.0836373 -5.6551
upperneck 23.1421 -3.00197 12.4561
head 9.98793 -0.932796 4.9251
rclavicle 1.6524e-014 1.27222e-014
rhumerus -38.2137 -21.3287 -78.1316
rradius 37.5459
rwrist 41.9094
rhand -34.7721 -13.4349
rfingers 7.12502
rthumb -7.92478 -43.2664
lclavicle 1.6524e-014 1.27222e-014
lhumerus -36.8142 -3.73571 88.341
lradius 29.1976
lwrist -30.3222
lhand -28.7462 15.4942
lfingers 7.12502
lthumb -2.10661 45.4635
rfemur 173.415 43.6287 -169.748
rtibia 26.4668
rfoot -32.13 -48.833
rtoes 1.31993e-013
lfemur -7.93162 -5.1832 -11.1379
ltibia 26.0753
lfoot -25.4245 16.1055
ltoes -5.24792e-014
13
root 12.99 18.1272 12.6636 -178.257 -6.34419 -177.065
lowerback 2.10118 1.30638 -2.63116
upperback 1.0806 1.67387 0.951807
thorax -0.173651 0.81699 2.41251
lowerneck -14.4838 0.00114523 -5.63581
upperneck 23.0882 -2.84534 12.3808
head 9.95686 -0.861081 4.91283
rclavicle 5.51627e-015 -5.1684e-015
rhumerus -38.1058 -20.7081 -78.3628
rradius 37.829
rwrist 41.1757
rhand -34.1476 -13.4115
rfingers 7.12502
rthumb -7.32208 -43.2648
lclavicle 5.51627e-015 -5.1684e-015
lhumerus -36.7645 -4.00824 88.3332
lradius 29.1677
lwrist -30.4882
lhand -28.6504 15.3968
lfingers 7.12502
lthumb -2.01407 45.367
rfemur 172.555 44.0516 -169.407
rtibia 27.4132
rfoot -32.5904 -49.5246
rtoes -5.08889e-014
lfemur -7.5658 -5.87114 -11.1655
ltibia 25.7137
lfoot -25.7781 17.0007
ltoes 2.20651e-014
